<svg width="3" height="12" viewBox="0 0 3 12" fill="none" xmlns="http://www.w3.org/2000/svg">
<path d="M1.33333 2.66667C1.59704 2.66667 1.85483 2.58847 2.07409 2.44196C2.29336 2.29545 2.46426 2.08721 2.56517 1.84358C2.66609 1.59994 2.69249 1.33185 2.64105 1.07321C2.5896 0.814572 2.46261 0.576995 2.27614 0.390525C2.08967 0.204055 1.8521 0.0770672 1.59345 0.0256202C1.33481 -0.0258267 1.06672 0.000577708 0.82309 0.101495C0.579455 0.202411 0.371217 0.373308 0.224708 0.592574C0.0781995 0.811839 7.18526e-07 1.06963 7.18526e-07 1.33333C7.18526e-07 1.68696 0.140477 2.02609 0.390525 2.27614C0.640574 2.52619 0.979712 2.66667 1.33333 2.66667ZM1.33333 9.33333C1.06963 9.33333 0.811839 9.41153 0.592574 9.55804C0.373308 9.70455 0.202411 9.91279 0.101495 10.1564C0.000577708 10.4001 -0.0258267 10.6681 0.0256202 10.9268C0.0770672 11.1854 0.204055 11.423 0.390525 11.6095C0.576995 11.7959 0.814572 11.9229 1.07321 11.9744C1.33185 12.0258 1.59994 11.9994 1.84358 11.8985C2.08721 11.7976 2.29545 11.6267 2.44196 11.4074C2.58847 11.1882 2.66667 10.9304 2.66667 10.6667C2.66667 10.313 2.52619 9.97391 2.27614 9.72386C2.02609 9.47381 1.68696 9.33333 1.33333 9.33333ZM1.33333 4.66667C1.06963 4.66667 0.811839 4.74487 0.592574 4.89137C0.373308 5.03788 0.202411 5.24612 0.101495 5.48976C0.000577708 5.73339 -0.0258267 6.00148 0.0256202 6.26012C0.0770672 6.51876 0.204055 6.75634 0.390525 6.94281C0.576995 7.12928 0.814572 7.25627 1.07321 7.30771C1.33185 7.35916 1.59994 7.33276 1.84358 7.23184C2.08721 7.13092 2.29545 6.96003 2.44196 6.74076C2.58847 6.52149 2.66667 6.26371 2.66667 6C2.66667 5.64638 2.52619 5.30724 2.27614 5.05719C2.02609 4.80714 1.68696 4.66667 1.33333 4.66667Z" fill="black"/>
</svg>
